<?xml version="1.0" encoding="UTF-8" standalone="no"?>
<svg
   xmlns:dc="http://purl.org/dc/elements/1.1/"
   xmlns:cc="http://creativecommons.org/ns#"
   xmlns:rdf="http://www.w3.org/1999/02/22-rdf-syntax-ns#"
   xmlns:svg="http://www.w3.org/2000/svg"
   xmlns="http://www.w3.org/2000/svg"
   width="320"
   height="172"
   viewBox="0 0 320 172"
   fill="none"
   version="1.1"
   id="svg482">
  <metadata
     id="metadata488">
    <rdf:RDF>
      <cc:Work
         rdf:about="">
        <dc:format>image/svg+xml</dc:format>
        <dc:type
           rdf:resource="http://purl.org/dc/dcmitype/StillImage" />
        <dc:title></dc:title>
      </cc:Work>
    </rdf:RDF>
  </metadata>
  <defs
     id="defs486" />
  <mask
     id="mask0_51_2423"
     style="mask-type:alpha"
     maskUnits="userSpaceOnUse"
     x="-1"
     y="40"
     width="322"
     height="74">
    <path
       d="M43.5 62.5L57 55.5L70.5 62.5L80.7043 69.8495L83.7604 73.3854L111.75 57.25L123 52L145.5 41.5L169 51.5L220.935 75.4543L232 66L240 61.7857L273 48.5L299.967 66L320 79V113H237.5H129H118H0V91V58L7.5 56.0814L21.5 52.5L33.6 58L43.5 62.5Z"
       fill="white"
       id="path2" />
    <path
       d="M43.5 62.5L57 55.5L70.5 62.5L80.7043 69.8495M43.5 62.5L32.5 69.7069M43.5 62.5L33.6 58M83.7604 73.3854L111.75 57.25L123 52M169 51.5L145.5 41.5L123 52M169 51.5L163.5 55.5L157.5 53L153.5 55.5L147 53L140.5 57.25L135 51.5L127.5 55L123 52M169 51.5L220.935 75.4543M118 113L80.7043 69.8495M0 91L32.5 69.7069M0 91V58L7.5 56.0814M0 91V113H320V79L299.967 66M129 113L159.843 80M237.5 113L209 85.6522M32.5 69.7069L40.5 75L52.5 69.7069L62.5 75L67 70.5L76 76.5L80.7043 69.8495M240 61.7857L232 66L209 85.6522M240 61.7857L273 48.5L299.967 66M240 61.7857L248 64L257.5 62.5L263 68.5L273 65L281 70L287.5 65.5L295 69.5L299.967 66M7.5 56.0814L21.5 52.5L33.6 58M7.5 56.0814L10.5 59.5L16 58.5L20.5 62.5L24.5 60L29 62L33.6 58M159.843 80L174 68L199 77.322M159.843 80L168 85L175.5 80L183 85L189 79L196.5 82L199 77.322M199 77.322L203 80L209 85.6522"
       stroke="black"
       id="path4" />
  </mask>
  <g
     mask="url(#mask0_51_2423)"
     id="g9">
    <rect
       y="41"
       width="320"
       height="72"
       fill="#D9D9D9"
       id="rect7" />
  </g>
  <path
     d="M43.5 62.5L57 55.5L70.5 62.5L80.7043 69.8495L83.7604 73.3854L111.75 57.25L123 52L145.5 41.5L169 51.5L220.935 75.4543L232 66L240 61.7857L273 48.5L299.967 66L295 69.5L287.5 65.5L281 70L273 65L263 68.5L257.5 62.5L248 64L240 61.7857L232 66L220.935 75.4543L209 85.6522L203 80L199 77.322L196.5 82L189 79L183 85L175.5 80L168 85L159.843 80L174 68L199 77.322L203 80L209 85.6522L220.935 75.4543L169 51.5L163.5 55.5L157.5 53L153.5 55.5L147 53L140.5 57.25L135 51.5L127.5 55L123 52L111.75 57.25L83.7604 73.3854L80.7043 69.8495L76 76.5L67 70.5L62.5 75L52.5 69.7069L40.5 75L32.5 69.7069L43.5 62.5L33.6 58L29 62L24.5 60L20.5 62.5L16 58.5L10.5 59.5L7.5 56.0814L21.5 52.5L33.6 58L43.5 62.5Z"
     fill="white"
     id="path11" />
  <path
     d="M0 58L7.5 56.0814M43.5 62.5L57 55.5L70.5 62.5L80.7043 69.8495M43.5 62.5L32.5 69.7069M43.5 62.5L33.6 58M83.7604 73.3854L111.75 57.25L123 52M169 51.5L145.5 41.5L123 52M169 51.5L163.5 55.5L157.5 53L153.5 55.5L147 53L140.5 57.25L135 51.5L127.5 55L123 52M169 51.5L220.935 75.4543M320 79L299.967 66M118 113L80.7043 69.8495M0 91L32.5 69.7069M129 113L159.843 80M237.5 113L209 85.6522M32.5 69.7069L40.5 75L52.5 69.7069L62.5 75L67 70.5L76 76.5L80.7043 69.8495M240 61.7857L232 66L209 85.6522M240 61.7857L273 48.5L299.967 66M240 61.7857L248 64L257.5 62.5L263 68.5L273 65L281 70L287.5 65.5L295 69.5L299.967 66M7.5 56.0814L21.5 52.5L33.6 58M7.5 56.0814L10.5 59.5L16 58.5L20.5 62.5L24.5 60L29 62L33.6 58M159.843 80L174 68L199 77.322M159.843 80L168 85L175.5 80L183 85L189 79L196.5 82L199 77.322M199 77.322L203 80L209 85.6522"
     stroke="black"
     id="path13" />
  <path
     d="m 53.3586,25.5856 c -0.0407,0.0221 -0.0915,0.0247 -0.1355,0.0058 z m 7.5975,4.1203 0.0046,0.3186 0.2906,0.1304 c 1.965,0.8817 3.2487,2.8152 3.2487,4.9231 -1e-4,2.9759 -2.4962,5.422 -5.5937,5.422 H 39.457 c -3.8493,0 -6.957,-3.0404 -6.957,-6.7469 0,-1.5406 0.5498,-3.0489 1.5501,-4.2454 0.8855,-1.0593 2.0904,-1.8386 3.4301,-2.2243 l 0.3454,-0.0995 0.0158,-0.3591 C 38.0196,22.7695 41.4763,19.5 45.7257,19.5 c 1.8035,0 3.5666,0.6062 4.963,1.7033 1.1827,0.9292 2.0657,2.1774 2.5365,3.5647 l 0.1658,0.4887 0.4833,-0.1812 c 0.5967,-0.2239 1.235,-0.3405 1.8782,-0.3405 2.8575,0 5.1639,2.2368 5.2036,4.9709 z"
     stroke="#000000"
     id="path15" />
  <mask
     id="path-7-inside-1_51_2423"
     fill="white">
    <path
       d="M278.53 16.2946C278.499 14.2354 276.728 12.5693 274.555 12.5693C274.065 12.5693 273.578 12.6562 273.123 12.8232C272.773 11.8139 272.118 10.9081 271.241 10.2342C270.205 9.43831 268.9 9 267.566 9C264.426 9 261.856 11.3652 261.723 14.3201C260.724 14.6016 259.824 15.1704 259.161 15.9457C258.413 16.8221 258 17.9277 258 19.0589C258 21.7835 260.331 24 263.197 24H276.753C279.095 24 281 22.1887 281 19.9623C281 18.3855 280.02 16.9485 278.53 16.2946ZM276.753 23.1516H263.197C260.824 23.1516 258.892 21.3156 258.892 19.0589C258.892 18.122 259.234 17.2064 259.854 16.4807C260.466 15.765 261.321 15.2617 262.262 15.0635C262.469 15.0199 262.615 14.8438 262.611 14.6423L262.611 14.6283C262.611 14.6057 262.61 14.583 262.61 14.5603C262.61 11.9622 264.833 9.84839 267.566 9.84839C268.713 9.84839 269.79 10.21 270.68 10.8939C271.545 11.5586 272.155 12.4889 272.4 13.5133C272.431 13.6437 272.525 13.7526 272.654 13.807C272.782 13.8614 272.93 13.855 273.053 13.7896C273.51 13.5463 274.029 13.4177 274.555 13.4177C276.255 13.4177 277.638 14.7326 277.638 16.3489C277.638 16.4076 277.636 16.4701 277.63 16.5458C277.617 16.733 277.735 16.9063 277.92 16.9716C279.229 17.4334 280.108 18.6352 280.108 19.9623C280.108 21.7209 278.603 23.1516 276.753 23.1516Z"
       id="path17" />
  </mask>
  <path
     d="M278.53 16.2946L277.53 16.3094L277.54 16.9519L278.128 17.2102L278.53 16.2946ZM273.123 12.8232L272.179 13.1509L272.512 14.1127L273.468 13.7619L273.123 12.8232ZM271.241 10.2342L271.85 9.44131L271.85 9.44129L271.241 10.2342ZM261.723 14.3201L261.994 15.2827L262.69 15.0868L262.722 14.365L261.723 14.3201ZM259.161 15.9457L258.401 15.296L258.401 15.296L259.161 15.9457ZM281 19.9623L282 19.9623V19.9623H281ZM259.854 16.4807L260.614 17.1304L260.614 17.1304L259.854 16.4807ZM262.262 15.0635L262.056 14.085L262.056 14.085L262.262 15.0635ZM262.611 14.6423L261.611 14.6593L261.611 14.66L262.611 14.6423ZM262.611 14.6283L263.611 14.6113L263.611 14.6099L262.611 14.6283ZM270.68 10.8939L270.07 11.6868L270.07 11.6868L270.68 10.8939ZM272.4 13.5133L271.427 13.7454L271.427 13.7458L272.4 13.5133ZM272.654 13.807L272.264 14.7279L272.264 14.7281L272.654 13.807ZM273.053 13.7896L272.583 12.9068L272.583 12.9069L273.053 13.7896ZM277.63 16.5458L278.628 16.6158L278.628 16.6156L277.63 16.5458ZM277.92 16.9716L277.587 17.9146L277.587 17.9146L277.92 16.9716ZM280.108 19.9623H279.108H280.108ZM279.53 16.2797C279.491 13.6289 277.228 11.5693 274.555 11.5693V13.5693C276.228 13.5693 277.508 14.8419 277.53 16.3094L279.53 16.2797ZM274.555 11.5693C273.947 11.5693 273.344 11.6769 272.779 11.8844L273.468 13.7619C273.812 13.6355 274.182 13.5693 274.555 13.5693V11.5693ZM274.068 12.4955C273.652 11.2972 272.878 10.2312 271.85 9.44131L270.631 11.027C271.357 11.5849 271.894 12.3306 272.179 13.1509L274.068 12.4955ZM271.85 9.44129C270.636 8.50805 269.116 8 267.566 8V10C268.685 10 269.775 10.3686 270.631 11.027L271.85 9.44129ZM267.566 8C263.934 8 260.883 10.7446 260.724 14.2753L262.722 14.365C262.829 11.9858 264.918 10 267.566 10V8ZM261.452 13.3576C260.268 13.6911 259.196 14.3661 258.401 15.296L259.922 16.5953C260.452 15.9747 261.18 15.5121 261.994 15.2827L261.452 13.3576ZM258.401 15.296C257.501 16.3497 257 17.6845 257 19.0589H259C259 18.1709 259.324 17.2945 259.922 16.5953L258.401 15.296ZM257 19.0589C257 22.3828 259.827 25 263.197 25V23C260.835 23 259 21.1841 259 19.0589H257ZM263.197 25H276.753V23H263.197V25ZM276.753 25C279.599 25 282 22.788 282 19.9623L280 19.9622C280 21.5894 278.591 23 276.753 23V25ZM282 19.9623C282 17.9639 280.762 16.1821 278.932 15.3789L278.128 17.2102C279.278 17.7149 280 18.8072 280 19.9623H282ZM276.753 22.1516H263.197V24.1516H276.753V22.1516ZM263.197 22.1516C261.328 22.1516 259.892 20.7163 259.892 19.0589H257.892C257.892 21.915 260.32 24.1516 263.197 24.1516V22.1516ZM259.892 19.0589C259.892 18.3651 260.146 17.6787 260.614 17.1304L259.094 15.831C258.322 16.734 257.892 17.8789 257.892 19.0589H259.892ZM260.614 17.1304C261.079 16.5862 261.738 16.1958 262.468 16.042L262.056 14.085C260.904 14.3276 259.852 14.9437 259.094 15.831L260.614 17.1304ZM262.468 16.0421C263.11 15.9068 263.624 15.3396 263.611 14.6246L261.611 14.66C261.606 14.348 261.828 14.133 262.056 14.085L262.468 16.0421ZM263.611 14.6253L263.611 14.6113L261.611 14.6453L261.611 14.6593L263.611 14.6253ZM263.611 14.6099C263.61 14.5831 263.61 14.5715 263.61 14.5603H261.61C261.61 14.5945 261.611 14.6283 261.611 14.6467L263.611 14.6099ZM263.61 14.5603C263.61 12.5615 265.338 10.8484 267.566 10.8484V8.84839C264.329 8.84839 261.61 11.3628 261.61 14.5603H263.61ZM267.566 10.8484C268.498 10.8484 269.359 11.1403 270.07 11.6868L271.289 10.1011C270.22 9.27965 268.928 8.84839 267.566 8.84839V10.8484ZM270.07 11.6868C270.76 12.2171 271.238 12.9524 271.427 13.7454L273.372 13.2813C273.073 12.0253 272.329 10.9001 271.289 10.1011L270.07 11.6868ZM271.427 13.7458C271.536 14.1995 271.856 14.5555 272.264 14.7279L273.043 12.8861C273.194 12.9497 273.326 13.088 273.372 13.2808L271.427 13.7458ZM272.264 14.7281C272.669 14.8993 273.133 14.88 273.523 14.6723L272.583 12.9069C272.727 12.8299 272.895 12.8236 273.043 12.886L272.264 14.7281ZM273.523 14.6724C273.833 14.5072 274.191 14.4177 274.555 14.4177V12.4177C273.868 12.4177 273.187 12.5854 272.583 12.9068L273.523 14.6724ZM274.555 14.4177C275.751 14.4177 276.638 15.3319 276.638 16.3489H278.638C278.638 14.1333 276.759 12.4177 274.555 12.4177V14.4177ZM276.638 16.3489C276.638 16.3784 276.637 16.4168 276.633 16.476L278.628 16.6156C278.634 16.5234 278.638 16.4367 278.638 16.3489H276.638ZM276.633 16.4757C276.586 17.1398 277.005 17.7092 277.587 17.9146L278.253 16.0287C278.465 16.1035 278.648 16.3263 278.628 16.6158L276.633 16.4757ZM277.587 17.9146C278.52 18.244 279.108 19.0847 279.108 19.9623H281.108C281.108 18.1858 279.937 16.6229 278.253 16.0287L277.587 17.9146ZM279.108 19.9623C279.108 21.1216 278.099 22.1516 276.753 22.1516V24.1516C279.107 24.1516 281.108 22.3203 281.108 19.9623H279.108Z"
     fill="black"
     mask="url(#path-7-inside-1_51_2423)"
     id="path20" />
  <path
     d="m 106.102,6.78742 c 1.213,0.26102 2.315,0.92351 3.105,1.86868 0.803,0.95982 1.245,2.1718 1.245,3.4146 0,2.9976 -2.504,5.4112 -5.553,5.4112 H 88.9858 c -2.4341,0 -4.4382,-1.9273 -4.4382,-4.3271 0,-1.8104 1.1709,-3.43596 2.8982,-4.05915 0.007,-0.00253 0.0099,-0.00592 0.011,-0.00746 0,-9e-5 1e-4,-1.6e-4 1e-4,-2.4e-4 -0.0067,-0.09842 -0.0102,-0.18494 -0.0102,-0.26932 0,-2.22903 1.8611,-4.01741 4.1194,-4.01741 0.6993,0 1.3913,0.17484 2.0021,0.50706 l 10e-5,7e-5 M 87.3996,8.76072 87.395,9.07925 87.1043,9.20966 C 85.528,9.91695 84.5,11.4672 84.5,13.1547 c 1e-4,2.3822 1.9992,4.3453 4.4858,4.3453 h 15.9132 c 3.102,0 5.601,-2.4494 5.601,-5.4293 0,-1.2389 -0.442,-2.45243 -1.247,-3.4152 C 108.54,7.803 107.57,7.1753 106.491,6.86466 L 106.146,6.76521 106.13,6.40612 C 105.986,3.13881 103.2,0.5 99.7699,0.5 96.956253,0.73066921 94.60799,2.2260331 93.72,4.74847 l -0.1658,0.48877 -0.4833,-0.1813 c -0.478,-0.17933 -0.9894,-0.27279 -1.5048,-0.27279 -2.2906,0 -4.1348,1.79253 -4.1665,3.97757 z"
     stroke="#000000"
     id="path22" />
  <path
     d="M209.937 40.1917L209.932 40.5006L209.654 40.6351C207.761 41.5509 206.5 43.575 206.5 45.8088C206.5 48.9688 208.949 51.5 211.909 51.5H230.769C234.458 51.5 237.5 48.3474 237.5 44.4237C237.5 42.7977 236.962 41.2108 235.989 39.9564C235.128 38.8466 233.962 38.0355 232.672 37.6351L232.335 37.5305L232.32 37.1779C232.146 32.8929 228.769 29.5 224.69 29.5C222.955 29.5 221.253 30.1286 219.901 31.2739C218.755 32.2445 217.895 33.5523 217.436 35.0123L217.273 35.5287L216.771 35.3257C216.197 35.0935 215.584 34.9729 214.967 34.9729C212.239 34.9729 209.976 37.2856 209.937 40.1917ZM232.184 37.8103L232.184 37.8103C233.609 38.1411 234.897 38.979 235.815 40.164C236.748 41.3662 237.258 42.8786 237.258 44.4237C237.258 48.1379 234.369 51.1991 230.769 51.1991H211.909C209.038 51.1991 206.742 48.7593 206.742 45.8089C206.742 43.5792 208.081 41.5441 210.104 40.7572C210.147 40.7404 210.195 40.684 210.189 40.602L210.189 40.6019C210.182 40.4783 210.178 40.3715 210.178 40.2682C210.178 37.5361 212.304 35.2738 214.967 35.2738C215.788 35.2738 216.598 35.4951 217.31 35.9127L217.31 35.9128C217.339 35.9301 217.372 35.9313 217.401 35.9176C217.432 35.9031 217.465 35.8685 217.477 35.8144C217.84 34.1383 218.747 32.6142 220.036 31.5225C221.362 30.3987 222.974 29.8009 224.69 29.8009C228.79 29.8009 232.086 33.2881 232.086 37.5258C232.086 37.5614 232.085 37.5968 232.085 37.6272L232.085 37.6378L232.085 37.6384L232.084 37.6592L232.084 37.6595C232.083 37.7485 232.14 37.8002 232.184 37.8103Z"
     stroke="black"
     id="path24" />
  <path
     d="M255.803 114.784L258.958 109.841H256.981L260.013 105.508H258.383L262.35 100.431L266.317 105.508H264.687L267.719 109.841H265.742L268.897 114.784H255.803Z"
     fill="#49595B"
     id="path28" />
  <path
     d="M261.348 114.784H263.352V117.505H261.348V114.784Z"
     fill="#3E2E25"
     id="path30" />
  <path
     d="M266.949 113.587L266.494 113.86L264.168 109.978L264.623 109.705L266.949 113.587Z"
     fill="#2C3639"
     id="path32" />
  <path
     d="M261.082 115.05H255.319L258.474 110.106H256.472L259.503 105.773H257.839L262.35 100L266.861 105.773H265.197L268.228 110.106H266.226L269.381 115.05H263.617V117.24H264.148V115.874H264.679V117.24H265.209V116.369H265.74V117.24H266.435V117.77H263.617H261.082H258.264V117.24H261.082V115.05ZM268.413 114.519L265.258 109.575H267.209L264.178 105.243H265.773L262.35 100.862L258.927 105.243H260.522L257.49 109.575H259.442L256.964 113.458H259.603V113.988H256.625L256.287 114.519H261.082H263.617H268.413V114.519ZM263.087 117.24V115.05H261.613V117.24H263.087Z"
     fill="#2C3639"
     id="path34" />
  <path
     d="M260.31 113.458H261.89V113.988H260.31V113.458Z"
     fill="#2C3639"
     id="path36" />
  <path
     d="M242.764 112.732L245.165 108.97H243.661L245.968 105.672H244.728L247.747 101.808L250.766 105.672H249.526L251.833 108.97H250.328L252.73 112.732H242.764Z"
     fill="#49595B"
     id="path38" />
  <path
     d="M246.984 112.732H248.51V114.803H246.984V112.732Z"
     fill="#3E2E25"
     id="path40" />
  <path
     d="M251.247 111.821L250.901 112.029L249.131 109.074L249.477 108.866L251.247 111.821Z"
     fill="#2C3639"
     id="path42" />
  <path
     d="M246.782 112.934H242.396L244.797 109.172H243.273L245.58 105.874H244.314L247.747 101.48L251.18 105.874H249.914L252.221 109.172H250.697L253.098 112.934H248.712V114.601H249.115V113.562H249.519V114.601H249.923V113.938H250.327V114.601H250.856V115.005H248.712H246.782H244.638V114.601H246.782V112.934ZM252.362 112.53L249.96 108.768H251.445L249.138 105.47H250.352L247.747 102.136L245.142 105.47H246.356L244.049 108.768H245.534L243.648 111.723H245.656V112.126H243.39L243.132 112.53H246.782H248.712H252.362V112.53ZM248.308 114.601V112.934H247.186V114.601H248.308Z"
     fill="#2C3639"
     id="path44" />
  <path
     d="M246.195 111.723H247.397V112.127H246.195V111.723Z"
     fill="#2C3639"
     id="path46" />
  <path
     d="M230.591 121.76L234.445 115.721H232.031L235.734 110.429H233.743L238.589 104.227L243.435 110.429H241.444L245.147 115.721H242.732L246.586 121.76H230.591Z"
     fill="#49595B"
     id="path48" />
  <path
     d="M237.365 121.76H239.813V125.083H237.365V121.76Z"
     fill="#3E2E25"
     id="path50" />
  <path
     d="M244.207 120.298L243.651 120.631L240.81 115.888L241.366 115.555L244.207 120.298Z"
     fill="#2C3639"
     id="path52" />
  <path
     d="M237.04 122.084H230L233.854 116.045H231.408L235.111 110.753H233.078L238.589 103.701L244.099 110.753H242.066L245.769 116.045H243.323L247.177 122.084H240.137V124.759H240.785V123.091H241.433V124.759H242.081V123.696H242.729V124.759H243.579V125.407H240.137H237.04H233.598V124.759H237.04V122.084ZM245.995 121.436L242.141 115.397H244.524L240.821 110.105H242.77L238.589 104.753L234.407 110.105H236.356L232.653 115.397H235.037L232.01 120.139H235.233V120.787H231.596L231.183 121.436H237.04H240.137H245.995V121.436ZM239.489 124.759V122.084H237.689V124.759H239.489Z"
     fill="#2C3639"
     id="path54" />
  <path
     d="M236.097 120.139H238.027V120.787H236.097V120.139Z"
     fill="#2C3639"
     id="path56" />
  <path
     d="M244.879 127.242L249.197 120.477H246.492L250.64 114.548H248.41L253.838 107.601L259.267 114.548H257.037L261.185 120.477H258.48L262.798 127.242H244.879Z"
     fill="#49595B"
     id="path58" />
  <path
     d="M252.467 127.242H255.21V130.965H252.467V127.242Z"
     fill="#3E2E25"
     id="path60" />
  <path
     d="M260.132 125.604L259.509 125.977L256.326 120.664L256.949 120.291L260.132 125.604Z"
     fill="#2C3639"
     id="path62" />
  <path
     d="M252.104 127.605H244.217L248.535 120.84H245.795L249.943 114.911H247.665L253.838 107.011L260.012 114.911H257.734L261.882 120.84H259.142L263.46 127.605H255.573V130.602H256.299V128.733H257.025V130.602H257.751V129.411H258.477V130.602H259.429V131.328H255.573H252.104H248.248V130.602H252.104V127.605ZM262.135 126.879L257.818 120.114H260.488L256.34 114.185H258.523L253.838 108.19L249.154 114.185H251.337L247.189 120.114H249.859L246.468 125.427H250.079V126.153H246.005L245.542 126.879H252.104H255.573H262.135V126.879ZM254.847 130.602V127.605H252.83V130.602H254.847Z"
     fill="#2C3639"
     id="path64" />
  <path
     d="M251.047 125.427H253.209V126.153H251.047V125.427Z"
     fill="#2C3639"
     id="path66" />
  <path
     d="M287.18 121.573L290.503 116.366H288.421L291.614 111.802H289.897L294.076 106.454L298.255 111.802H296.538L299.732 116.366H297.649L300.973 121.573H287.18Z"
     fill="#49595B"
     id="path68" />
  <path
     d="M293.021 121.573H295.132V124.439H293.021V121.573Z"
     fill="#3E2E25"
     id="path70" />
  <path
     d="M298.921 120.312L298.442 120.6L295.992 116.51L296.471 116.223L298.921 120.312Z"
     fill="#2C3639"
     id="path72" />
  <path
     d="M292.741 121.853H286.67L289.994 116.645H287.884L291.078 112.082H289.324L294.076 106L298.828 112.082H297.075L300.268 116.645H298.159L301.483 121.853H295.411V124.16H295.97V122.721H296.529V124.16H297.088V123.243H297.647V124.16H298.38V124.719H295.411H292.741H289.773V124.16H292.741V121.853ZM300.463 121.294L297.139 116.086H299.195L296.002 111.523H297.682L294.076 106.908L290.47 111.523H292.151L288.958 116.086H291.013L288.403 120.176H291.183V120.735H288.046L287.69 121.294H292.741H295.411H300.463V121.294ZM294.853 124.16V121.853H293.3V124.16H294.853Z"
     fill="#2C3639"
     id="path74" />
  <path
     d="M291.928 120.176H293.592V120.735H291.928V120.176Z"
     fill="#2C3639"
     id="path76" />
  <path
     d="M273.445 119.412L275.975 115.448H274.39L276.82 111.975H275.514L278.694 107.905L281.875 111.975H280.568L282.998 115.448H281.413L283.943 119.412H273.445Z"
     fill="#49595B"
     id="path78" />
  <path
     d="M277.891 119.412H279.498V121.593H277.891V119.412Z"
     fill="#3E2E25"
     id="path80" />
  <path
     d="M282.381 118.452L282.016 118.671L280.152 115.558L280.517 115.34L282.381 118.452Z"
     fill="#2C3639"
     id="path82" />
  <path
     d="M277.678 119.624H273.057L275.587 115.661H273.982L276.412 112.188H275.078L278.694 107.559L282.311 112.188H280.976L283.407 115.661H281.801L284.331 119.624H279.71V121.38H280.136V120.285H280.561V121.38H280.986V120.682H281.412V121.38H281.969V121.806H279.71H277.678H275.419V121.38H277.678V119.624ZM283.555 119.199L281.025 115.236H282.59L280.16 111.762H281.439L278.694 108.25L275.95 111.762H277.229L274.798 115.236H276.363L274.376 118.348H276.492V118.774H274.105L273.833 119.199H277.678H279.71H283.555V119.199ZM279.285 121.38V119.624H278.103V121.38H279.285Z"
     fill="#2C3639"
     id="path84" />
  <path
     d="M277.059 118.348H278.326V118.774H277.059V118.348Z"
     fill="#2C3639"
     id="path86" />
  <path
     d="M260.623 128.921L264.683 122.56H262.139L266.04 116.985H263.942L269.047 110.453L274.152 116.985H272.054L275.955 122.56H273.411L277.471 128.921H260.623Z"
     fill="#49595B"
     id="path88" />
  <path
     d="M267.758 128.921H270.337V132.422H267.758V128.921Z"
     fill="#3E2E25"
     id="path90" />
  <path
     d="M274.965 127.381L274.379 127.732L271.386 122.736L271.972 122.385L274.965 127.381Z"
     fill="#2C3639"
     id="path92" />
  <path
     d="M267.416 129.262H260L264.06 122.901H261.484L265.384 117.327H263.243L269.047 109.898L274.851 117.327H272.71L276.611 122.901H274.034L278.094 129.262H270.678V132.08H271.361V130.323H272.043V132.08H272.726V130.96H273.409V132.08H274.304V132.763H270.678H267.416H263.79V132.08H267.416V129.262ZM276.848 128.58L272.789 122.219H275.3L271.399 116.644H273.452L269.047 111.007L264.642 116.644H266.695L262.794 122.219H265.305L262.117 127.214H265.512V127.897H261.681L261.246 128.58H267.416H270.678H276.848V128.58ZM269.995 132.08V129.262H268.099V132.08H269.995Z"
     fill="#2C3639"
     id="path94" />
  <path
     d="M266.423 127.214H268.455V127.897H266.423V127.214Z"
     fill="#2C3639"
     id="path96" />
  <path
     d="M275.673 134.696L280.221 127.57H277.372L281.742 121.325H279.392L285.111 114.006L290.829 121.325H288.48L292.85 127.57H290L294.548 134.696H275.673Z"
     fill="#49595B"
     id="path98" />
  <path
     d="M283.666 134.696H286.555V138.618H283.666V134.696Z"
     fill="#3E2E25"
     id="path100" />
  <path
     d="M291.74 132.971L291.084 133.364L287.731 127.767L288.388 127.374L291.74 132.971Z"
     fill="#2C3639"
     id="path102" />
  <path
     d="M283.284 135.078H274.976L279.524 127.952H276.638L281.007 121.707H278.608L285.111 113.385L291.613 121.707H289.214L293.584 127.952H290.698L295.246 135.078H286.938V138.235H287.703V136.266H288.467V138.235H289.232V136.98H289.997V138.235H291V139H286.938H283.284H279.222V138.235H283.284V135.078ZM293.85 134.314L289.302 127.188H292.115L287.746 120.942H290.045L285.111 114.627L280.176 120.942H282.476L278.106 127.188H280.919L277.347 132.784H281.151V133.549H276.859L276.371 134.314H283.284H286.938H293.85V134.314ZM286.173 138.235V135.078H284.048V138.235H286.173Z"
     fill="#2C3639"
     id="path104" />
  <path
     d="M282.171 132.784H284.448V133.549H282.171V132.784Z"
     fill="#2C3639"
     id="path106" />
  <path
     d="M100.717 119.027L104.351 113.333H102.074L105.565 108.344H103.688L108.257 102.496L112.826 108.344H110.949L114.44 113.333H112.163L115.797 119.027H100.717Z"
     fill="#49595B"
     id="path108" />
  <path
     d="M107.103 119.027H109.411V122.16H107.103V119.027Z"
     fill="#3E2E25"
     id="path110" />
  <path
     d="M113.554 117.648L113.03 117.962L110.351 113.491L110.875 113.177L113.554 117.648Z"
     fill="#2C3639"
     id="path112" />
  <path
     d="M106.797 119.332H100.159L103.793 113.639H101.487L104.979 108.649H103.062L108.257 102L113.452 108.649H111.536L115.027 113.639H112.721L116.355 119.332H109.717V121.855H110.328V120.282H110.939V121.855H111.55V120.852H112.161V121.855H112.962V122.466H109.717H106.797H103.552V121.855H106.797V119.332ZM115.24 118.721L111.606 113.028H113.854L110.362 108.038H112.2L108.257 102.993L104.315 108.038H106.152L102.661 113.028H104.908L102.054 117.499H105.093V118.11H101.664L101.274 118.721H106.797H109.717H115.24V118.721ZM109.106 121.855V119.332H107.408V121.855H109.106Z"
     fill="#2C3639"
     id="path114" />
  <path
     d="M105.908 117.499H107.728V118.11H105.908V117.499Z"
     fill="#2C3639"
     id="path116" />
  <path
     d="M85.7002 116.664L88.4659 112.33H86.7331L89.3903 108.533H87.9617L91.439 104.083L94.9164 108.533H93.4878L96.145 112.33H94.4121L97.1778 116.664H85.7002Z"
     fill="#49595B"
     id="path118" />
  <path
     d="M90.5606 116.664H92.3175V119.048H90.5606V116.664Z"
     fill="#3E2E25"
     id="path120" />
  <path
     d="M95.4704 115.614L95.0714 115.853L93.0327 112.45L93.4316 112.211L95.4704 115.614Z"
     fill="#2C3639"
     id="path122" />
  <path
     d="M90.3281 116.896H85.276L88.0417 112.563H86.2866L88.9438 108.765H87.4849L91.4391 103.705L95.3932 108.765H93.9343L96.5915 112.563H94.8365L97.6021 116.896H92.55V118.816H93.0152V117.619H93.4802V118.816H93.9454V118.053H94.4105V118.816H95.02V119.281H92.55H90.3281H87.8581V118.816H90.3281V116.896ZM96.7536 116.431L93.9879 112.098H95.6985L93.0413 108.3H94.4396L91.4391 104.46L88.4385 108.3H89.8368L87.1796 112.098H88.8902L86.7183 115.501H89.0311V115.966H86.4214L86.1245 116.431H90.3281H92.55H96.7536V116.431ZM92.085 118.816V116.896H90.7931V118.816H92.085Z"
     fill="#2C3639"
     id="path124" />
  <path
     d="M89.6512 115.501H91.0361V115.966H89.6512V115.501Z"
     fill="#2C3639"
     id="path126" />
  <path
     d="M71.681 127.06L76.1197 120.106H73.3386L77.6033 114.011H75.3105L80.8915 106.868L86.4725 114.011H84.1796L88.4443 120.106H85.6632L90.102 127.06H71.681Z"
     fill="#49595B"
     id="path128" />
  <path
     d="M79.4816 127.061H82.3014V130.888H79.4816V127.061Z"
     fill="#3E2E25"
     id="path130" />
  <path
     d="M87.3616 125.377L86.7214 125.76L83.4493 120.298L84.0896 119.915L87.3616 125.377Z"
     fill="#2C3639"
     id="path132" />
  <path
     d="M79.1084 127.434H71L75.4388 120.479H72.622L76.8867 114.384H74.5452L80.8915 106.262L87.2377 114.384H84.8962L89.1609 120.479H86.3442L90.7829 127.434H82.6745V130.515H83.4211V128.593H84.1675V130.515H84.9141V129.29H85.6605V130.515H86.6388V131.261H82.6745H79.1084H75.1441V130.515H79.1084V127.434ZM89.4211 126.687L84.9823 119.733H87.7277L83.463 113.638H85.7073L80.8915 107.474L76.0757 113.638H78.32L74.0553 119.733H76.8007L73.3148 125.194H77.0268V125.941H72.8384L72.3619 126.687H79.1084H82.6745H89.4211V126.687ZM81.9281 130.515V127.434H79.8548V130.515H81.9281Z"
     fill="#2C3639"
     id="path134" />
  <path
     d="M78.0221 125.194H80.2447V125.941H78.0221V125.194Z"
     fill="#2C3639"
     id="path136" />
  <path
     d="M88.1363 133.374L93.1089 125.583H89.9933L94.7709 118.755H92.2023L98.4545 110.753L104.707 118.755H102.138L106.916 125.583H103.8L108.773 133.374H88.1363Z"
     fill="#49595B"
     id="path138" />
  <path
     d="M96.8751 133.375H100.034V137.662H96.8751V133.375Z"
     fill="#3E2E25"
     id="path140" />
  <path
     d="M105.703 131.488L104.986 131.918L101.32 125.799L102.037 125.369L105.703 131.488Z"
     fill="#2C3639"
     id="path142" />
  <path
     d="M96.457 133.793H87.3734L92.346 126.001H89.1905L93.9681 119.173H91.345L98.4545 110.074L105.564 119.173H102.941L107.719 126.001H104.563L109.536 133.793H100.452V137.244H101.288V135.092H102.125V137.244H102.961V135.872H103.797V137.244H104.893V138.08H100.452H96.457H92.0159V137.244H96.457V133.793ZM108.01 132.956L103.037 125.165H106.113L101.335 118.337H103.85L98.4545 111.433L93.0595 118.337H95.5737L90.7961 125.165H93.8717L89.9666 131.284H94.125V132.12H89.4329L88.8991 132.956H96.457H100.452H108.01V132.956ZM99.6159 137.244V133.793H97.2931V137.244H99.6159Z"
     fill="#2C3639"
     id="path144" />
  <path
     d="M95.24 131.284H97.73V132.12H95.24V131.284Z"
     fill="#2C3639"
     id="path146" />
  <path
     d="M165.311 116.582L161.986 111.372H164.069L160.874 106.805H162.592L158.411 101.454L154.229 106.805H155.947L152.752 111.372H154.836L151.51 116.582H165.311Z"
     fill="#49595B"
     id="path148" />
  <path
     d="M159.467 116.582H157.354V119.45H159.467V116.582Z"
     fill="#3E2E25"
     id="path150" />
  <path
     d="M153.563 115.321L154.043 115.608L156.494 111.516L156.015 111.229L153.563 115.321Z"
     fill="#2C3639"
     id="path152" />
  <path
     d="M159.747 116.862H165.821L162.496 111.651H164.606L161.411 107.085H163.165L158.411 101L153.656 107.085H155.41L152.215 111.651H154.326L151 116.862H157.075V119.17H156.515V117.731H155.956V119.17H155.397V118.253H154.838V119.17H154.105V119.729H157.075H159.747H162.717V119.17H159.747V116.862ZM152.02 116.303L155.346 111.092H153.289L156.484 106.526H154.803L158.411 101.908L162.019 106.526H160.337L163.532 111.092H161.475L164.087 115.184H161.306V115.743H164.444L164.801 116.303H159.747H157.075H152.02V116.303ZM157.634 119.17V116.862H159.187V119.17H157.634Z"
     fill="#2C3639"
     id="path154" />
  <path
     d="M160.56 115.184H158.895V115.743H160.56V115.184Z"
     fill="#2C3639"
     id="path156" />
  <path
     d="M179.053 114.42L176.522 110.454H178.108L175.677 106.979H176.984L173.802 102.906L170.619 106.979H171.927L169.495 110.454H171.081L168.55 114.42H179.053Z"
     fill="#49595B"
     id="path158" />
  <path
     d="M174.606 114.419H172.998V116.602H174.606V114.419Z"
     fill="#3E2E25"
     id="path160" />
  <path
     d="M170.112 113.459L170.477 113.678L172.343 110.564L171.978 110.345L170.112 113.459Z"
     fill="#2C3639"
     id="path162" />
  <path
     d="M174.818 114.632H179.442L176.911 110.667H178.517L176.085 107.191H177.42L173.802 102.56L170.183 107.191H171.518L169.086 110.667H170.693L168.162 114.632H172.785V116.389H172.359V115.293H171.934V116.389H171.508V115.691H171.082V116.389H170.525V116.815H172.785H174.818H177.079V116.389H174.818V114.632ZM168.938 114.207L171.469 110.241H169.904L172.335 106.766H171.056L173.802 103.251L176.548 106.766H175.268L177.7 110.241H176.134L178.122 113.355H176.005V113.781H178.394L178.665 114.207H174.818H172.785H168.938V114.207ZM173.211 116.389V114.632H174.393V116.389H173.211Z"
     fill="#2C3639"
     id="path164" />
  <path
     d="M175.438 113.355H174.17V113.781H175.438V113.355Z"
     fill="#2C3639"
     id="path166" />
  <path
     d="M191.883 123.934L187.821 117.57H190.366L186.463 111.992H188.562L183.454 105.455L178.347 111.992H180.445L176.542 117.57H179.087L175.025 123.934H191.883Z"
     fill="#49595B"
     id="path168" />
  <path
     d="M184.745 123.934H182.164V127.437H184.745V123.934Z"
     fill="#3E2E25"
     id="path170" />
  <path
     d="M177.533 122.393L178.119 122.744L181.114 117.746L180.528 117.395L177.533 122.393Z"
     fill="#2C3639"
     id="path172" />
  <path
     d="M185.086 124.276H192.506L188.444 117.911H191.022L187.119 112.333H189.262L183.454 104.9L177.646 112.333H179.789L175.886 117.911H178.464L174.402 124.276H181.822V127.095H181.139V125.337H180.456V127.095H179.773V125.974H179.09V127.095H178.195V127.778H181.822H185.086H188.714V127.095H185.086V124.276ZM175.648 123.593L179.711 117.228H177.198L181.101 111.65H179.047L183.454 106.01L187.861 111.65H185.808L189.71 117.228H187.198L190.388 122.226H186.991V122.909H190.824L191.26 123.593H185.086H181.822H175.648V123.593ZM182.506 127.095V124.276H184.403V127.095H182.506Z"
     fill="#2C3639"
     id="path174" />
  <path
     d="M186.08 122.226H184.046V122.909H186.08V122.226Z"
     fill="#2C3639"
     id="path176" />
  <path
     d="M176.824 129.712L172.273 122.582H175.125L170.752 116.334H173.103L167.381 109.011L161.66 116.334H164.01L159.638 122.582H162.489L157.939 129.712H176.824Z"
     fill="#49595B"
     id="path178" />
  <path
     d="M168.827 129.712H165.936V133.636H168.827V129.712Z"
     fill="#3E2E25"
     id="path180" />
  <path
     d="M160.748 127.986L161.405 128.379L164.759 122.78L164.103 122.386L160.748 127.986Z"
     fill="#2C3639"
     id="path182" />
  <path
     d="M169.209 130.095H177.522L172.972 122.965H175.859L171.487 116.716H173.888L167.381 108.389L160.875 116.716H163.276L158.903 122.965H161.791L157.241 130.095H165.553V133.254H164.788V131.284H164.023V133.254H163.257V131.998H162.492V133.254H161.489V134.019H165.553H169.209H173.274V133.254H169.209V130.095ZM158.637 129.33L163.187 122.2H160.373L164.745 115.951H162.444L167.381 109.632L172.319 115.951H170.018L174.39 122.2H171.575L175.149 127.799H171.344V128.564H175.638L176.126 129.33H169.209H165.553H158.637V129.33ZM166.319 133.254V130.095H168.444V133.254H166.319Z"
     fill="#2C3639"
     id="path184" />
  <path
     d="M170.323 127.799H168.044V128.564H170.323V127.799Z"
     fill="#2C3639"
     id="path186" />
  <path
     d="M126.878 118.11L123.653 113.058H125.673L122.575 108.63H124.241L120.186 103.44L116.132 108.63H117.797L114.699 113.058H116.72L113.495 118.11H126.878Z"
     fill="#49595B"
     id="path188" />
  <path
     d="M121.211 118.11H119.162V120.891H121.211V118.11Z"
     fill="#3E2E25"
     id="path190" />
  <path
     d="M115.486 116.887L115.951 117.166L118.328 113.198L117.863 112.919L115.486 116.887Z"
     fill="#2C3639"
     id="path192" />
  <path
     d="M121.482 118.381H127.372L124.148 113.329H126.194L123.096 108.901H124.797L120.186 103L115.576 108.901H117.277L114.178 113.329H116.225L113 118.381H118.891V120.62H118.348V119.224H117.806V120.62H117.264V119.73H116.722V120.62H116.011V121.162H118.891H121.482H124.362V120.62H121.482V118.381ZM113.989 117.839L117.214 112.787H115.22L118.318 108.358H116.687L120.186 103.881L123.685 108.358H122.054L125.153 112.787H123.158L125.691 116.755H122.994V117.297H126.037L126.383 117.839H121.482H118.891H113.989V117.839ZM119.433 120.62V118.381H120.939V120.62H119.433Z"
     fill="#2C3639"
     id="path194" />
  <path
     d="M122.271 116.754H120.656V117.297H122.271V116.754Z"
     fill="#2C3639"
     id="path196" />
  <path
     d="M140.204 116.013L137.75 112.168H139.287L136.929 108.798H138.197L135.111 104.848L132.025 108.798H133.293L130.935 112.168H132.473L130.018 116.013H140.204Z"
     fill="#49595B"
     id="path198" />
  <path
     d="M135.891 116.013H134.331V118.129H135.891V116.013Z"
     fill="#3E2E25"
     id="path200" />
  <path
     d="M131.533 115.082L131.888 115.294L133.697 112.274L133.343 112.062L131.533 115.082Z"
     fill="#2C3639"
     id="path202" />
  <path
     d="M136.097 116.219H140.58L138.126 112.374H139.683L137.325 109.004H138.62L135.111 104.513L131.602 109.004H132.897L130.539 112.374H132.096L129.642 116.219H134.125V117.923H133.712V116.861H133.3V117.923H132.887V117.246H132.474V117.923H131.933V118.336H134.125H136.097H138.289V117.923H136.097V116.219ZM130.395 115.807L132.849 111.961H131.331L133.689 108.591H132.448L135.111 105.183L137.774 108.591H136.533L138.891 111.961H137.373L139.3 114.981H137.248V115.394H139.564L139.827 115.807H136.097H134.125H130.395V115.807ZM134.538 117.923V116.219H135.684V117.923H134.538Z"
     fill="#2C3639"
     id="path204" />
  <path
     d="M136.698 114.981H135.469V115.394H136.698V114.981Z"
     fill="#2C3639"
     id="path206" />
  <path
     d="M152.645 125.24L148.706 119.068H151.174L147.389 113.659H149.424L144.471 107.32L139.519 113.659H141.553L137.769 119.068H140.237L136.298 125.24H152.645Z"
     fill="#49595B"
     id="path208" />
  <path
     d="M145.723 125.24H143.22V128.636H145.723V125.24Z"
     fill="#3E2E25"
     id="path210" />
  <path
     d="M138.73 123.745L139.298 124.086L142.201 119.239L141.633 118.898L138.73 123.745Z"
     fill="#2C3639"
     id="path212" />
  <path
     d="M146.054 125.571H153.249L149.31 119.399H151.81L148.025 113.99H150.103L144.471 106.782L138.839 113.99H140.917L137.133 119.399H139.632L135.693 125.571H142.889V128.305H142.226V126.6H141.564V128.305H140.902V127.218H140.239V128.305H139.371V128.967H142.889H146.054H149.572V128.305H146.054V125.571ZM136.902 124.908L140.841 118.737H138.405L142.189 113.328H140.198L144.471 107.858L148.745 113.328H146.753L150.538 118.737H148.102L151.195 123.583H147.901V124.246H151.618L152.041 124.908H146.054H142.889H136.902V124.908ZM143.551 128.305V125.571H145.391V128.305H143.551Z"
     fill="#2C3639"
     id="path214" />
  <path
     d="M147.018 123.583H145.045V124.246H147.018V123.583Z"
     fill="#2C3639"
     id="path216" />
  <path
     d="M138.042 130.843L133.629 123.929H136.394L132.154 117.869H134.434L128.885 110.768L123.337 117.869H125.616L121.377 123.929H124.141L119.728 130.843H138.042Z"
     fill="#49595B"
     id="path218" />
  <path
     d="M130.287 130.843H127.484V134.648H130.287V130.843Z"
     fill="#3E2E25"
     id="path220" />
  <path
     d="M122.453 129.169L123.089 129.55L126.342 124.12L125.706 123.739L122.453 129.169Z"
     fill="#2C3639"
     id="path222" />
  <path
     d="M130.658 131.214H138.719L134.306 124.3H137.107L132.867 118.24H135.195L128.885 110.166L122.576 118.24H124.904L120.664 124.3H123.464L119.052 131.214H127.113V134.277H126.37V132.367H125.628V134.277H124.886V133.059H124.144V134.277H123.172V135.019H127.113H130.658H134.599V134.277H130.658V131.214ZM120.405 130.472L124.818 123.558H122.089L126.329 117.498H124.098L128.885 111.371L133.673 117.498H131.442L135.682 123.558H132.952L136.418 128.988H132.727V129.73H136.891L137.365 130.472H130.658H127.113H120.405V130.472ZM127.855 134.277V131.214H129.916V134.277H127.855Z"
     fill="#2C3639"
     id="path224" />
  <path
     d="M131.738 128.987H129.528V129.73H131.738V128.987Z"
     fill="#2C3639"
     id="path226" />
  <path
     d="M217.536 118.989L221.162 113.308H218.89L222.374 108.33H220.501L225.06 102.495L229.619 108.33H227.746L231.229 113.308H228.958L232.583 118.989H217.536Z"
     fill="#49595B"
     id="path228" />
  <path
     d="M223.908 118.989H226.211V122.115H223.908V118.989Z"
     fill="#3E2E25"
     id="path230" />
  <path
     d="M230.345 117.614L229.822 117.927L227.149 113.466L227.672 113.152L230.345 117.614Z"
     fill="#2C3639"
     id="path232" />
  <path
     d="M223.603 119.294H216.98L220.606 113.613H218.305L221.789 108.634H219.876L225.06 102L230.244 108.634H228.331L231.815 113.613H229.514L233.139 119.294H226.516V121.811H227.126V120.241H227.736V121.811H228.346V120.81H228.955V121.811H229.754V122.42H226.516H223.603H220.365V121.811H223.603V119.294ZM232.027 118.684L228.401 113.003H230.644L227.16 108.025H228.994L225.06 102.99L221.126 108.025H222.959L219.476 113.003H221.718L218.871 117.465H221.903V118.074H218.482L218.092 118.684H223.603H226.516H232.027V118.684ZM225.907 121.811V119.294H224.213V121.811H225.907Z"
     fill="#2C3639"
     id="path234" />
  <path
     d="M222.716 117.465H224.532V118.074H222.716V117.465Z"
     fill="#2C3639"
     id="path236" />
  <path
     d="M202.553 116.631L205.313 112.307H203.584L206.235 108.518H204.81L208.279 104.078L211.749 108.518H210.323L212.975 112.307H211.246L214.005 116.631H202.553Z"
     fill="#49595B"
     id="path238" />
  <path
     d="M207.403 116.631H209.156V119.01H207.403V116.631Z"
     fill="#3E2E25"
     id="path240" />
  <path
     d="M212.302 115.584L211.904 115.823L209.869 112.427L210.267 112.189L212.302 115.584Z"
     fill="#2C3639"
     id="path242" />
  <path
     d="M207.171 116.863H202.13L204.889 112.539H203.138L205.79 108.75H204.334L208.279 103.701L212.225 108.75H210.769L213.42 112.539H211.669L214.429 116.863H209.388V118.778H209.852V117.584H210.316V118.778H210.78V118.017H211.244V118.778H211.852V119.242H209.388H207.171H204.706V118.778H207.171V116.863ZM213.582 116.399L210.822 112.075H212.529L209.878 108.286H211.273L208.279 104.455L205.285 108.286H206.681L204.029 112.075H205.736L203.569 115.471H205.877V115.935H203.273L202.976 116.399H207.171H209.388H213.582V116.399ZM208.924 118.778V116.863H207.635V118.778H208.924Z"
     fill="#2C3639"
     id="path244" />
  <path
     d="M206.495 115.471H207.877V115.935H206.495V115.471Z"
     fill="#2C3639"
     id="path246" />
  <path
     d="M188.565 127.005L192.994 120.066H190.219L194.474 113.984H192.186L197.755 106.857L203.324 113.984H201.036L205.291 120.066H202.516L206.945 127.005H188.565Z"
     fill="#49595B"
     id="path248" />
  <path
     d="M196.348 127.005H199.162V130.824H196.348V127.005Z"
     fill="#3E2E25"
     id="path250" />
  <path
     d="M204.211 125.325L203.572 125.707L200.307 120.258L200.946 119.875L204.211 125.325Z"
     fill="#2C3639"
     id="path252" />
  <path
     d="M195.976 127.377H187.886L192.315 120.438H189.504L193.759 114.357H191.423L197.755 106.253L204.087 114.357H201.751L206.006 120.438H203.196L207.625 127.377H199.534V130.451H200.279V128.534H201.024V130.451H201.769V129.229H202.513V130.451H203.49V131.196H199.534H195.976H192.02V130.451H195.976V127.377ZM206.266 126.632L201.837 119.693H204.576L200.321 113.612H202.56L197.755 107.462L192.95 113.612H195.189L190.934 119.693H193.673L190.195 125.143H193.899V125.888H189.72L189.244 126.632H195.976H199.534H206.266V126.632ZM198.789 130.451V127.377H196.721V130.451H198.789Z"
     fill="#2C3639"
     id="path254" />
  <path
     d="M194.892 125.143H197.11V125.887H194.892V125.143Z"
     fill="#2C3639"
     id="path256" />
  <path
     d="M207.761 133.248L212.723 125.474H209.614L214.381 118.662H211.818L218.056 110.678L224.295 118.662H221.732L226.499 125.474H223.39L228.352 133.248H207.761Z"
     fill="#49595B"
     id="path258" />
  <path
     d="M216.481 133.248H219.632V137.526H216.481V133.248Z"
     fill="#3E2E25"
     id="path260" />
  <path
     d="M225.289 131.366L224.573 131.795L220.915 125.69L221.631 125.261L225.289 131.366Z"
     fill="#2C3639"
     id="path262" />
  <path
     d="M216.063 133.665H207L211.962 125.892H208.813L213.58 119.079H210.963L218.057 110L225.15 119.079H222.533L227.3 125.892H224.151L229.113 133.665H220.05V137.109H220.884V134.961H221.718V137.109H222.553V135.74H223.387V137.109H224.481V137.944H220.05H216.063H211.632V137.109H216.063V133.665ZM227.591 132.831L222.629 125.057H225.698L220.931 118.244H223.44L218.057 111.355L212.674 118.244H215.182L210.415 125.057H213.484L209.587 131.162H213.737V131.997H209.055L208.522 132.831H216.063H220.05H227.591V132.831ZM219.215 137.109V133.665H216.898V137.109H219.215Z"
     fill="#2C3639"
     id="path264" />
  <path
     d="M214.849 131.162H217.334V131.997H214.849V131.162Z"
     fill="#2C3639"
     id="path266" />
  <path
     d="M308.638 114.607L311.016 110.881H309.526L311.81 107.616H310.582L313.572 103.79L316.561 107.616H315.333L317.618 110.881H316.128L318.505 114.607H308.638Z"
     fill="#49595B"
     id="path268" />
  <path
     d="M312.817 114.607H314.327V116.657H312.817V114.607Z"
     fill="#3E2E25"
     id="path270" />
  <path
     d="M317.038 113.705L316.695 113.91L314.942 110.984L315.285 110.779L317.038 113.705Z"
     fill="#2C3639"
     id="path272" />
  <path
     d="M312.617 114.806H308.273L310.651 111.081H309.142L311.427 107.816H310.172L313.572 103.466L316.971 107.816H315.717L318.001 111.081H316.493L318.87 114.806H314.527V116.457H314.927V115.428H315.327V116.457H315.727V115.801H316.126V116.457H316.65V116.857H314.527H312.617H310.493V116.457H312.617V114.806ZM318.141 114.407L315.763 110.681H317.234L314.949 107.416H316.151L313.572 104.115L310.992 107.416H312.194L309.91 110.681H311.381L309.513 113.607H311.502V114.007H309.258L309.003 114.407H312.617H314.527H318.141V114.407ZM314.127 116.457V114.806H313.016V116.457H314.127Z"
     fill="#2C3639"
     id="path274" />
  <path
     d="M312.035 113.607H313.225V114.007H312.035V113.607Z"
     fill="#2C3639"
     id="path276" />
  <path
     d="M296.585 123.545L300.402 117.566H298.011L301.677 112.326H299.706L304.504 106.185L309.302 112.326H307.331L310.997 117.566H308.606L312.422 123.545H296.585Z"
     fill="#49595B"
     id="path278" />
  <path
     d="M303.292 123.545H305.716V126.835H303.292V123.545Z"
     fill="#3E2E25"
     id="path280" />
  <path
     d="M310.066 122.097L309.516 122.427L306.703 117.731L307.253 117.402L310.066 122.097Z"
     fill="#2C3639"
     id="path282" />
  <path
     d="M302.971 123.866H296L299.816 117.887H297.395L301.061 112.647H299.048L304.504 105.664L309.96 112.647H307.947L311.613 117.887H309.192L313.008 123.866H306.037V126.515H306.679V124.863H307.32V126.515H307.962V125.462H308.604V126.515H309.445V127.156H306.037H302.971H299.563V126.515H302.971V123.866ZM311.837 123.224L308.021 117.245H310.381L306.715 112.005H308.644L304.504 106.706L300.364 112.005H302.293L298.627 117.245H300.987L297.99 121.941H301.181V122.582H297.581L297.171 123.224H302.971H306.037H311.837V123.224ZM305.395 126.515V123.866H303.613V126.515H305.395Z"
     fill="#2C3639"
     id="path284" />
  <path
     d="M302.037 121.941H303.948V122.582H302.037V121.941Z"
     fill="#2C3639"
     id="path286" />
  <path
     d="M310.732 128.973L315.007 122.275H312.329L316.436 116.405H314.228L319.603 109.526L324.978 116.405H322.77L326.877 122.275H324.199L328.474 128.973H310.732Z"
     fill="#49595B"
     id="path288" />
  <path
     d="M318.245 128.973H320.961V132.659H318.245V128.973Z"
     fill="#3E2E25"
     id="path290" />
  <path
     d="M317.886 129.333H310.077L314.352 122.634H311.639L315.746 116.764H313.491L319.603 108.942L325.715 116.764H323.46L327.568 122.634H324.855L329.13 129.333H321.32V132.3H322.039V130.449H322.758V132.3H323.477V131.12H324.196V132.3H325.139V133.019H321.32H317.886H314.068V132.3H317.886V129.333ZM327.818 128.614L323.543 121.916H326.187L322.08 116.045H324.241L319.603 110.109L314.965 116.045H317.127L313.019 121.916H315.663L312.306 127.176H315.881V127.895H311.847L311.388 128.614H317.886H321.32H327.818V128.614ZM320.602 132.3V129.333H318.605V132.3H320.602Z"
     fill="#2C3639"
     id="path292" />
  <path
     d="M316.84 127.176H318.98V127.895H316.84V127.176Z"
     fill="#2C3639"
     id="path294" />
  <path
     d="M299.523 145.756L294.709 138.212H297.725L293.099 131.601H295.586L289.533 123.854L283.479 131.601H285.966L281.341 138.212H284.357L279.543 145.756H299.523Z"
     fill="#49595B"
     id="path296" />
  <path
     d="M291.062 145.756H288.004V149.907H291.062V145.756Z"
     fill="#3E2E25"
     id="path298" />
  <path
     d="M282.515 143.929L283.209 144.345L286.758 138.421L286.064 138.005L282.515 143.929Z"
     fill="#2C3639"
     id="path300" />
  <path
     d="M291.467 146.16H300.262L295.447 138.617H298.503L293.877 132.006H296.416L289.533 123.196L282.649 132.006H285.189L280.563 138.617H283.619L278.804 146.16H287.599V149.502H286.789V147.418H285.979V149.502H285.17V148.174H284.36V149.502H283.299V150.312H287.599H291.467H295.767V149.502H291.467V146.16ZM280.281 145.351L285.096 137.807H282.118L286.744 131.196H284.309L289.533 124.511L294.756 131.196H292.322L296.948 137.807H293.97L297.751 143.732H293.725V144.541H298.268L298.785 145.351H291.467H287.599H280.281V145.351ZM288.408 149.502V146.16H290.657V149.502H288.408Z"
     fill="#2C3639"
     id="path302" />
  <path
     d="M292.645 143.731H290.234V144.541H292.645V143.731Z"
     fill="#2C3639"
     id="path304" />
  <path
     d="M312.769 137.17L309.105 131.428H311.401L307.88 126.397H309.773L305.166 120.5L300.558 126.397H302.451L298.931 131.428H301.227L297.562 137.17H312.769Z"
     fill="#49595B"
     id="path306" />
  <path
     d="M306.33 137.17H304.002V140.329H306.33V137.17Z"
     fill="#3E2E25"
     id="path308" />
  <path
     d="M299.824 135.78L300.353 136.096L303.054 131.587L302.526 131.271L299.824 135.78Z"
     fill="#2C3639"
     id="path310" />
  <path
     d="M306.638 137.478H313.331L309.667 131.737H311.992L308.472 126.705H310.405L305.166 120L299.927 126.705H301.86L298.339 131.737H300.664L297 137.478H303.694V140.021H303.077V138.435H302.461V140.021H301.845V139.01H301.229V140.021H300.421V140.637H303.694H306.638H309.91V140.021H306.638V137.478ZM298.124 136.862L301.789 131.12H299.522L303.043 126.089H301.19L305.166 121.001L309.141 126.089H307.288L310.809 131.12H308.543L311.42 135.629H308.356V136.245H311.814L312.207 136.862H306.638H303.694H298.124V136.862ZM304.31 140.021V137.478H306.021V140.021H304.31Z"
     fill="#2C3639"
     id="path312" />
  <path
     d="M307.534 135.629H305.7V136.245H307.534V135.629Z"
     fill="#2C3639"
     id="path314" />
  <path
     d="M334.309 154.557L328.428 145.342H332.113L326.462 137.267H329.5L322.105 127.803L314.711 137.267H317.749L312.099 145.342H315.783L309.902 154.557H334.309Z"
     fill="#49595B"
     id="path316" />
  <path
     d="M313.533 152.326L314.381 152.834L318.717 145.597L317.868 145.089L313.533 152.326Z"
     fill="#2C3639"
     id="path318" />
  <path
     d="M324.468 155.051H335.211L329.33 145.837H333.062L327.412 137.761H330.514L322.106 127L313.697 137.761H316.8L311.149 145.837H314.881L309 155.051H319.743V159.133H318.754V156.588H317.765V159.133H316.776V157.511H315.787V159.133H314.491V160.122H319.743H324.468H329.72V159.133H324.468V155.051ZM310.804 154.062L316.685 144.848H313.048L318.698 136.772H315.725L322.106 128.606L328.486 136.772H325.513L331.163 144.848H327.526L332.144 152.084H327.226V153.073H332.775L333.407 154.062H324.468H319.743H310.804V154.062ZM320.732 159.133V155.051H323.479V159.133H320.732Z"
     fill="#2C3639"
     id="path320" />
  <path
     d="M316.192 164.765L309.603 154.442H313.731L307.401 145.396H310.804L302.521 134.794L294.237 145.396H297.64L291.31 154.442H295.438L288.85 164.765H316.192Z"
     fill="#49595B"
     id="path322" />
  <path
     d="M304.613 164.765H300.428V170.446H304.613V164.765Z"
     fill="#3E2E25"
     id="path324" />
  <path
     d="M292.917 162.266L293.867 162.835L298.724 154.728L297.774 154.159L292.917 162.266Z"
     fill="#2C3639"
     id="path326" />
  <path
     d="M305.167 165.319H317.202L310.614 154.996H314.795L308.465 145.95H311.94L302.521 133.894L293.101 145.95H296.576L290.246 154.996H294.427L287.839 165.319H299.874V169.892H298.766V167.04H297.658V169.892H296.55V168.074H295.442V169.892H293.99V171H299.874H305.167H311.051V169.892H305.167V165.319ZM289.86 164.211L296.449 153.888H292.374L298.704 144.842H295.373L302.521 135.694L309.669 144.842H306.337L312.667 153.888H308.592L313.767 161.995H308.257V163.103H314.474L315.181 164.211H305.167H299.874H289.86V164.211ZM300.982 169.892V165.319H304.059V169.892H300.982Z"
     fill="#2C3639"
     id="path328" />
  <path
     d="M306.78 161.995H303.481V163.103H306.78V161.995Z"
     fill="#2C3639"
     id="path330" />
  <path
     d="M254.588 143.683L249.107 135.095H252.541L247.275 127.569H250.106L243.215 118.749L236.323 127.569H239.154L233.888 135.095H237.322L231.841 143.683H254.588Z"
     fill="#49595B"
     id="path332" />
  <path
     d="M244.956 143.683H241.474V148.41H244.956V143.683Z"
     fill="#3E2E25"
     id="path334" />
  <path
     d="M235.225 141.604L236.016 142.078L240.056 135.333L239.265 134.859L235.225 141.604Z"
     fill="#2C3639"
     id="path336" />
  <path
     d="M245.416 144.144H255.429L249.948 135.556H253.426L248.16 128.03H251.051L243.215 118L235.378 128.03H238.269L233.003 135.556H236.481L231 144.144H241.013V147.949H240.091V145.576H239.169V147.949H238.247V146.436H237.326V147.949H236.117V148.871H241.013H245.416H250.312V147.949H245.416V144.144ZM232.682 143.223L238.163 134.634H234.773L240.039 127.108H237.268L243.215 119.497L249.161 127.108H246.39L251.656 134.634H248.266L252.571 141.379H247.987V142.301H253.159L253.748 143.223H245.416H241.013H232.682V143.223ZM241.934 147.949V144.144H244.495V147.949H241.934Z"
     fill="#2C3639"
     id="path338" />
  <path
     d="M246.758 141.379H244.013V142.3H246.758V141.379Z"
     fill="#2C3639"
     id="path340" />
  <path
     d="M281.106 154.845L275.017 145.305H278.832L272.982 136.944H276.127L268.471 127.145L260.815 136.944H263.961L258.11 145.305H261.925L255.836 154.845H281.106Z"
     fill="#49595B"
     id="path342" />
  <path
     d="M270.405 154.845H266.537V160.096H270.405V154.845Z"
     fill="#3E2E25"
     id="path344" />
  <path
     d="M259.595 152.535L260.474 153.062L264.962 145.569L264.084 145.043L259.595 152.535Z"
     fill="#2C3639"
     id="path346" />
  <path
     d="M270.917 155.357H282.04L275.951 145.817H279.815L273.965 137.456H277.177L268.471 126.314L259.765 137.456H262.977L257.127 145.817H260.991L254.902 155.357H266.025V159.584H265.001V156.948H263.977V159.584H262.953V157.904H261.929V159.584H260.587V160.608H266.025H270.917H276.356V159.584H270.917V155.357ZM256.77 154.333L262.859 144.793H259.093L264.944 136.432H261.865L268.471 127.977L275.078 136.432H271.999L277.849 144.793H274.083L278.865 152.285H273.773V153.309H279.519L280.172 154.333H270.917H266.025H256.77V154.333ZM267.049 159.584V155.357H269.893V159.584H267.049Z"
     fill="#2C3639"
     id="path348" />
  <path
     d="M272.408 152.285H269.358V153.309H272.408V152.285Z"
     fill="#2C3639"
     id="path350" />
  <path
     d="M9.8612 114.004L6.87262 109.321H8.74511L5.87373 105.217H7.41749L3.65984 100.408L-0.097801 105.217H1.44599L-1.4254 109.321H0.447094L-2.54152 114.004H9.8612Z"
     fill="#49595B"
     id="path352" />
  <path
     d="M4.60911 114.003H2.71059V116.58H4.60911V114.003Z"
     fill="#3E2E25"
     id="path354" />
  <path
     d="M-0.69645 112.87L-0.265366 113.128L1.93769 109.451L1.5066 109.192L-0.69645 112.87Z"
     fill="#2C3639"
     id="path356" />
  <path
     d="M4.86037 114.255H10.3197L7.33106 109.572H9.22757L6.35618 105.469H7.93271L3.65982 100L-0.613036 105.469H0.963486L-1.90793 109.572H-0.0114209L-3 114.255H2.4593V116.329H1.95665V115.035H1.45411V116.329H0.951459V115.505H0.448912V116.329H-0.209793V116.832H2.4593H4.86037H7.52946V116.329H4.86037V114.255ZM-2.08309 113.752L0.905526 109.07H-0.942942L1.92844 104.966H0.417385L3.65982 100.816L6.90225 104.966H5.39119L8.26258 109.07H6.41411L8.76114 112.747H6.26187V113.25H9.0819L9.40272 113.752H4.86037H2.4593H-2.08309V113.752ZM2.96185 116.329V114.255H4.35782V116.329H2.96185Z"
     fill="#2C3639"
     id="path358" />
  <path
     d="M5.59179 112.747H4.09531V113.25H5.59179V112.747Z"
     fill="#2C3639"
     id="path360" />
  <path
     d="M22.2112 112.06L19.9367 108.496H21.3618L19.1764 105.373H20.3514L17.4915 101.713L14.6316 105.373H15.8066L13.6212 108.496H15.0463L12.7717 112.06H22.2112Z"
     fill="#49595B"
     id="path362" />
  <path
     d="M18.2139 112.06H16.769V114.021H18.2139V112.06Z"
     fill="#3E2E25"
     id="path364" />
  <path
     d="M14.176 111.197L14.5041 111.393L16.1808 108.595L15.8527 108.398L14.176 111.197Z"
     fill="#2C3639"
     id="path366" />
  <path
     d="M18.4052 112.251H22.5602L20.2856 108.687H21.729L19.5436 105.564H20.7435L17.4915 101.402L14.2395 105.564H15.4393L13.2539 108.687H14.6973L12.4228 112.251H16.5778V113.83H16.1952V112.845H15.8127V113.83H15.4302V113.202H15.0477V113.83H14.5464V114.212H16.5778H18.4052H20.4366V113.83H18.4052V112.251ZM13.1206 111.869L15.3952 108.305H13.9884L16.1737 105.182H15.0237L17.4915 102.023L19.9592 105.182H18.8092L20.9945 108.305H19.5877L21.374 111.104H19.4718V111.486H21.6181L21.8623 111.869H18.4052H16.5778H13.1206V111.869ZM16.9602 113.83V112.251H18.0227V113.83H16.9602Z"
     fill="#2C3639"
     id="path368" />
  <path
     d="M18.9618 111.104H17.8229V111.486H18.9618V111.104Z"
     fill="#2C3639"
     id="path370" />
  <path
     d="M33.7411 120.611L30.0905 114.891H32.3778L28.8704 109.878H30.7561L26.1661 104.004L21.5761 109.878H23.4619L19.9544 114.891H22.2417L18.5911 120.611H33.7411Z"
     fill="#49595B"
     id="path372" />
  <path
     d="M27.3256 120.611H25.0066V123.758H27.3256V120.611Z"
     fill="#3E2E25"
     id="path374" />
  <path
     d="M20.8449 119.226L21.3714 119.541L24.0625 115.049L23.5359 114.734L20.8449 119.226Z"
     fill="#2C3639"
     id="path376" />
  <path
     d="M27.6326 120.917H34.3012L30.6505 115.198H32.9671L29.4597 110.185H31.3855L26.1661 103.505L20.9468 110.185H22.8725L19.365 115.198H21.6816L18.0311 120.917H24.6996V123.451H24.0857V121.871H23.4718V123.451H22.8578V122.444H22.2439V123.451H21.4393V124.065H24.6996H27.6326H30.8929V123.451H27.6326V120.917ZM19.1511 120.304L22.8017 114.584H20.5438L24.0512 109.571H22.2054L26.1661 104.502L30.1267 109.571H28.281L31.7884 114.584H29.5305L32.3974 119.076H29.3445V119.69H32.7892L33.1811 120.304H27.6326H24.6996H19.1511V120.304ZM25.3135 123.451V120.917H27.0187V123.451H25.3135Z"
     fill="#2C3639"
     id="path378" />
  <path
     d="M28.526 119.076H26.698V119.69H28.526V119.076Z"
     fill="#2C3639"
     id="path380" />
  <path
     d="M20.2078 125.803L16.1182 119.396H18.6805L14.7512 113.78H16.8638L11.7217 107.199L6.57968 113.78H8.69223L4.76297 119.396H7.32532L3.23564 125.803H20.2078Z"
     fill="#49595B"
     id="path382" />
  <path
     d="M13.0207 125.803H10.4227V129.33H13.0207V125.803Z"
     fill="#3E2E25"
     id="path384" />
  <path
     d="M5.76048 124.252L6.35039 124.605L9.36509 119.573L8.77518 119.22L5.76048 124.252Z"
     fill="#2C3639"
     id="path386" />
  <path
     d="M13.3646 126.147H20.8352L16.7455 119.74H19.3407L15.4115 114.124H17.5688L11.7217 106.641L5.87465 114.124H8.032L4.10269 119.74H6.69791L2.60828 126.147H10.0789V128.986H9.39107V127.216H8.70337V128.986H8.01554V127.857H7.32784V128.986H6.42646V129.674H10.0789H13.3646H17.017V128.986H13.3646V126.147ZM3.863 125.459L7.95268 119.052H5.4232L9.35246 113.436H7.2847L11.7217 107.758L16.1587 113.436H14.091L18.0202 119.052H15.4907L18.7025 124.084H15.2824V124.772H19.1414L19.5804 125.459H13.3646H10.0789H3.863V125.459ZM10.7666 128.986V126.147H12.6769V128.986H10.7666Z"
     fill="#2C3639"
     id="path388" />
  <path
     d="M14.3654 124.084H12.3176V124.772H14.3654V124.084Z"
     fill="#2C3639"
     id="path390" />
  <path
     d="M46.2347 116.526L42.7077 111H44.9175L41.5289 106.157H43.3507L38.9162 100.482L34.4817 106.157H36.3035L32.9149 111H35.1247L31.5977 116.526H46.2347Z"
     fill="#49595B"
     id="path392" />
  <path
     d="M40.0364 116.526H37.7959V119.567H40.0364V116.526Z"
     fill="#3E2E25"
     id="path394" />
  <path
     d="M33.7752 115.188L34.2839 115.493L36.8838 111.153L36.3751 110.848L33.7752 115.188Z"
     fill="#2C3639"
     id="path396" />
  <path
     d="M40.333 116.823H46.7757L43.2487 111.297H45.4869L42.0983 106.454H43.9588L38.9162 100L33.8736 106.454H35.7341L32.3455 111.297H34.5836L31.0567 116.823H37.4994V119.271H36.9062V117.744H36.3131V119.271H35.7199V118.298H35.1269V119.271H34.3495V119.864H37.4994H40.333H43.4829V119.271H40.333V116.823ZM32.1388 116.229L35.6657 110.703H33.4843L36.8729 105.861H35.0897L38.9162 100.963L42.7427 105.861H40.9594L44.3481 110.703H42.1666L44.9364 115.043H41.987V115.636H45.315L45.6936 116.229H40.333H37.4994H32.1388V116.229ZM38.0925 119.271V116.823H39.7399V119.271H38.0925Z"
     fill="#2C3639"
     id="path398" />
  <path
     d="M41.1962 115.043H39.4301V115.636H41.1962V115.043Z"
     fill="#2C3639"
     id="path400" />
  <path
     d="M60.8094 114.232L58.1251 110.027H59.8069L57.2279 106.341H58.6145L55.2394 102.021L51.8644 106.341H53.251L50.672 110.027H52.3538L49.6695 114.232H60.8094Z"
     fill="#49595B"
     id="path402" />
  <path
     d="M56.092 114.232H54.3868V116.547H56.092V114.232Z"
     fill="#3E2E25"
     id="path404" />
  <path
     d="M51.3267 113.214L51.7139 113.446L53.6926 110.143L53.3054 109.911L51.3267 113.214Z"
     fill="#2C3639"
     id="path406" />
  <path
     d="M56.3177 114.458H61.2212L58.5369 110.252H60.2403L57.6612 106.566H59.0773L55.2394 101.655L51.4016 106.566H52.8176L50.2386 110.252H51.942L49.2577 114.458H54.1611V116.321H53.7097V115.159H53.2583V116.321H52.8068V115.581H52.3554V116.321H51.7638V116.773H54.1611H56.3177H58.7151V116.321H56.3177V114.458ZM50.0812 114.007L52.7656 109.801H51.1053L53.6843 106.115H52.3271L55.2394 102.388L58.1517 106.115H56.7945L59.3735 109.801H57.7133L59.8213 113.104H57.5765V113.555H60.1094L60.3976 114.007H56.3177H54.1611H50.0812V114.007ZM54.6125 116.321V114.458H55.8664V116.321H54.6125Z"
     fill="#2C3639"
     id="path408" />
  <path
     d="M56.9747 113.104H55.6306V113.555H56.9747V113.104Z"
     fill="#2C3639"
     id="path410" />
  <path
     d="M74.4163 124.323L70.1081 117.573H72.8074L68.6681 111.657H70.8935L65.4767 104.725L60.0599 111.657H62.2853L58.1461 117.573H60.8454L56.5371 124.323H74.4163Z"
     fill="#49595B"
     id="path412" />
  <path
     d="M66.8451 124.323H64.1083V128.038H66.8451V124.323Z"
     fill="#3E2E25"
     id="path414" />
  <path
     d="M59.1969 122.689L59.8183 123.061L62.9942 117.76L62.3727 117.388L59.1969 122.689Z"
     fill="#2C3639"
     id="path416" />
  <path
     d="M67.2073 124.686H75.0772L70.769 117.935H73.5029L69.3636 112.02H71.6363L65.4767 104.137L59.3172 112.02H61.5898L57.4505 117.935H60.1844L55.8762 124.686H63.7461V127.676H63.0215V125.811H62.297V127.676H61.5725V126.487H60.848V127.676H59.8985V128.4H63.7461H67.2073H71.055V127.676H67.2073V124.686ZM57.198 123.961L61.5062 117.211H58.8416L62.9808 111.295H60.8026L65.4767 105.313L70.1508 111.295H67.9725L72.1118 117.211H69.4471L72.8305 122.512H69.2277V123.236H73.2929L73.7554 123.961H67.2073H63.7461H57.198V123.961ZM64.4705 127.676V124.686H66.4829V127.676H64.4705Z"
     fill="#2C3639"
     id="path418" />
  <path
     d="M68.2617 122.512H66.1044V123.236H68.2617V122.512Z"
     fill="#2C3639"
     id="path420" />
  <path
     d="M58.4451 130.451L53.6188 122.889H56.6427L52.0056 116.262H54.4987L48.4303 108.496L42.362 116.262H44.8551L40.2181 122.889H43.242L38.4156 130.451H58.4451Z"
     fill="#49595B"
     id="path422" />
  <path
     d="M49.9634 130.451H46.8974V134.613H49.9634V130.451Z"
     fill="#3E2E25"
     id="path424" />
  <path
     d="M41.3953 128.62L42.0914 129.038L45.6492 123.099L44.953 122.682L41.3953 128.62Z"
     fill="#2C3639"
     id="path426" />
  <path
     d="M50.3691 130.857H59.1855L54.3591 123.295H57.4218L52.7848 116.668H55.3307L48.4303 107.837L41.53 116.668H44.076L39.4388 123.295H42.5016L37.6752 130.857H46.4916V134.207H45.6798V132.118H44.8683V134.207H44.0565V132.876H43.245V134.207H42.1812V135.019H46.4916H50.3691H54.6795V134.207H50.3691V130.857ZM39.156 130.046L43.9824 122.484H40.9972L45.6343 115.857H43.194L48.4303 109.155L53.6666 115.857H51.2264L55.8635 122.484H52.8783L56.6686 128.422H52.6325V129.234H57.1866L57.7047 130.046H50.3691H46.4916H39.156V130.046ZM47.3032 134.207V130.857H49.5576V134.207H47.3032Z"
     fill="#2C3639"
     id="path428" />
  <path
     d="M51.5503 128.422H49.1336V129.234H51.5503V128.422Z"
     fill="#2C3639"
     id="path430" />
  <path
     d="M20.3772 145.276L15.4097 137.493H18.5221L13.7494 130.672H16.3154L10.0696 122.678L3.82386 130.672H6.38987L1.6172 137.493H4.72955L-0.237961 145.276H20.3772Z"
     fill="#49595B"
     id="path432" />
  <path
     d="M11.6474 145.276H8.49181V149.559H11.6474V145.276Z"
     fill="#3E2E25"
     id="path434" />
  <path
     d="M2.82884 143.391L3.54536 143.821L7.20716 137.708L6.49063 137.279L2.82884 143.391Z"
     fill="#2C3639"
     id="path436" />
  <path
     d="M12.0651 145.693H21.1393L16.1717 137.91H19.324L14.5514 131.089H17.1718L10.0696 122L2.96749 131.089H5.5879L0.815178 137.91H3.96746L-1 145.693H8.07416V149.141H7.23869V146.991H6.40338V149.141H5.56791V147.771H4.7326V149.141H3.63774V149.977H8.07416H12.0651H16.5015V149.141H12.0651V145.693ZM0.524045 144.858L5.49156 137.075H2.41913L7.1918 130.254H4.6802L10.0696 123.357L15.459 130.254H12.9474L17.7201 137.075H14.6476L18.5487 143.187H14.3946V144.023H19.0819L19.6152 144.858H12.0651H8.07416H0.524045V144.858ZM8.90947 149.141V145.693H11.2298V149.141H8.90947Z"
     fill="#2C3639"
     id="path438" />
  <path
     d="M13.2808 143.187H10.7934V144.023H13.2808V143.187Z"
     fill="#2C3639"
     id="path440" />
  <path
     d="M40.9047 142.045L37.1241 136.122H39.4928L35.8605 130.93H37.8134L33.0598 124.847L28.3063 130.93H30.2592L26.6268 136.122H28.9956L25.2149 142.045H40.9047Z"
     fill="#49595B"
     id="path442" />
  <path
     d="M34.2607 142.045H31.859V145.305H34.2607V142.045Z"
     fill="#3E2E25"
     id="path444" />
  <path
     d="M27.549 140.611L28.0943 140.938L30.8812 136.286L30.3359 135.959L27.549 140.611Z"
     fill="#2C3639"
     id="path446" />
  <path
     d="M34.5786 142.363H41.4847L37.7041 136.44H40.1032L36.4708 131.248H38.4652L33.0598 124.33L27.6545 131.248H29.6489L26.0164 136.44H28.4156L24.6349 142.363H31.5411V144.987H30.9053V143.351H30.2695V144.987H29.6337V143.944H28.9979V144.987H28.1646V145.623H31.5411H34.5786H37.955V144.987H34.5786V142.363ZM25.7949 141.727L29.5756 135.804H27.2372L30.8696 130.613H28.958L33.0598 125.363L37.1616 130.613H35.2501L38.8825 135.804H36.5441L39.5132 140.456H36.3515V141.092H39.9189L40.3248 141.727H34.5786H31.5411H25.7949V141.727ZM32.1769 144.987V142.363H33.9428V144.987H32.1769Z"
     fill="#2C3639"
     id="path448" />
  <path
     d="M35.5038 140.456H33.6107V141.092H35.5038V140.456Z"
     fill="#2C3639"
     id="path450" />
  <path
     d="M60.0692 156.258L54.0014 146.751H57.8031L51.9733 138.419H55.1076L47.4784 128.655L39.8491 138.419H42.9835L37.1537 146.751H40.9554L34.8876 156.258H60.0692Z"
     fill="#49595B"
     id="path452" />
  <path
     d="M49.4057 156.258H45.551V161.49H49.4057V156.258Z"
     fill="#3E2E25"
     id="path454" />
  <path
     d="M38.6337 153.956L39.5089 154.48L43.9818 147.014L43.1066 146.49L38.6337 153.956Z"
     fill="#2C3639"
     id="path456" />
  <path
     d="M49.9158 156.768H61L54.9321 147.261H58.7827L52.9528 138.929H56.1537L47.4783 127.826L38.803 138.929H42.0039L36.174 147.261H40.0245L33.9567 156.768H45.0409V160.98H44.0204V158.353H43V160.98H41.9795V159.305H40.9591V160.98H39.6218V162H45.0409H49.9158H55.335V160.98H49.9158V156.768ZM35.8184 155.748L41.8862 146.24H38.1332L43.9631 137.909H40.8951L47.4783 129.483L54.0615 137.909H50.9936L56.8234 146.24H53.0704L57.8357 153.707H52.7613V154.727H58.4869L59.1383 155.748H49.9158H45.0409H35.8184V155.748ZM46.0612 160.98V156.768H48.8955V160.98H46.0612Z"
     fill="#2C3639"
     id="path458" />
  <path
     d="M51.4008 153.707H48.3625V154.727H51.4008V153.707Z"
     fill="#2C3639"
     id="path460" />
  <path
     d="M37.5748 164.889L30.7772 154.238H35.0362L28.5052 144.904H32.0165L23.4697 133.966L14.9229 144.904H18.4342L11.9032 154.238H16.1622L9.36458 164.889H37.5748Z"
     fill="#49595B"
     id="path462" />
  <path
     d="M25.6288 164.889H21.3106V170.75H25.6288V164.889Z"
     fill="#3E2E25"
     id="path464" />
  <path
     d="M13.5612 162.31L14.5417 162.897L19.5526 154.533L18.5721 153.946L13.5612 162.31Z"
     fill="#2C3639"
     id="path466" />
  <path
     d="M26.2003 165.46H38.6176L31.8199 154.81H36.1336L29.6026 145.476H33.1884L23.4697 133.038L13.751 145.476H17.3368L10.8057 154.81H15.1194L8.32178 165.46H20.7391V170.179H19.5958V167.236H18.4527V170.179H17.3094V168.303H16.1664V170.179H14.6682V171.322H20.7391H26.2003H32.2712V170.179H26.2003V165.46ZM10.4073 164.317L17.205 153.667H13.0006L19.5316 144.333H16.0947L23.4697 134.894L30.8446 144.333H27.4077L33.9387 153.667H29.7343L35.0727 162.031H29.3881V163.174H35.8023L36.532 164.317H26.2003H20.7391H10.4073V164.317ZM21.8821 170.179V165.46H25.0573V170.179H21.8821Z"
     fill="#2C3639"
     id="path468" />
  <path
     d="M27.8639 162.031H24.4601V163.174H27.8639V162.031Z"
     fill="#2C3639"
     id="path470" />
  <path
     d="M80.8117 144.204L75.7433 136.262H78.9189L74.0492 129.303H76.6673L70.2946 121.147L63.9219 129.303H66.5401L61.6704 136.262H64.846L59.7775 144.204H80.8117Z"
     fill="#49595B"
     id="path472" />
  <path
     d="M71.9045 144.203H68.6848V148.574H71.9045V144.203Z"
     fill="#3E2E25"
     id="path474" />
  <path
     d="M62.9067 142.281L63.6378 142.719L67.374 136.482L66.6429 136.044L62.9067 142.281Z"
     fill="#2C3639"
     id="path476" />
  <path
     d="M72.3307 144.63H81.5893L76.5208 136.688H79.7371L74.8675 129.729H77.5411L70.2946 120.455L63.0481 129.729H65.7218L60.8521 136.688H64.0684L59 144.63H68.2586V148.148H67.4061V145.954H66.5539V148.148H65.7014V146.749H64.8491V148.148H63.732V149H68.2586H72.3307H76.8573V148.148H72.3307V144.63ZM60.555 143.777L65.6235 135.836H62.4886L67.3583 128.877H64.7957L70.2946 121.839L75.7935 128.877H73.2309L78.1006 135.836H74.9657L78.9461 142.073H74.7075V142.925H79.4901L80.0342 143.777H72.3307H68.2586H60.555V143.777ZM69.1109 148.148V144.63H71.4784V148.148H69.1109Z"
     fill="#2C3639"
     id="path478" />
  <path
     d="M73.5711 142.073H71.0331V142.925H73.5711V142.073Z"
     fill="#2C3639"
     id="path480" />
  <path
     d="m 162.652,16.8684 c 0.916,0.7477 1.602,1.7538 1.969,2.8747 l 0.164,0.5025 0.492,-0.1919 c 0.457,-0.178 0.945,-0.2706 1.437,-0.2706 2.179,0 3.963,1.7751 3.994,3.9774 l 0.004,0.3137 0.285,0.1325 c 1.507,0.7025 2.503,2.25 2.503,3.948 0,2.3999 -1.934,4.3453 -4.301,4.3453 h -15.324 c -2.959,0 -5.375,-2.4317 -5.375,-5.4293 0,-1.244 0.428,-2.46 1.202,-3.4224 0.686,-0.8518 1.618,-1.4764 2.65,-1.7851 l 0.341,-0.102 0.015,-0.3559 c 0.139,-3.2835 2.83,-5.9053 6.106,-5.9053 1.393,0 2.756,0.486 3.838,1.3684 z m 0,0 0.31,-0.3803 z m -9.944,4.9199 v 0 l 0.001,-2e-4 c 0,-10e-5 0.001,-6e-4 0.002,-0.0015 10e-4,-0.0018 0.002,-0.0041 0.002,-0.0075 v -3e-4 -0.0162 c -0.001,-0.0028 -0.001,-0.0057 -0.001,-0.0087 0,-0.0237 -10e-4,-0.0525 -10e-4,-0.0816 0,-3.3895 2.733,-6.1542 6.103,-6.1542 1.412,0 2.741,0.4737 3.836,1.3672 1.064,0.8682 1.815,2.0823 2.116,3.4211 0.001,0.0039 0.003,0.0055 0.004,0.0059 v -10e-5 0 c 0.592,-0.3344 1.264,-0.511 1.944,-0.511 2.202,0 3.985,1.8061 3.985,4.0174 0,0.0842 -0.003,0.1706 -0.009,0.2692 v 10e-5 c -0.001,0.0031 0,0.0055 0.001,0.0075 0.002,0.0019 0.002,0.0022 0.003,0.0023 v 10e-5 m -17.986,-2.3095 c -1.175,0.2628 -2.24,0.929 -3.002,1.875 z"
     stroke="#000000"
     id="path26" />
</svg>
