<svg width="20" height="14" viewBox="0 0 20 14" fill="none" xmlns="http://www.w3.org/2000/svg">
<path d="M18.4599 0H1.54008C0.691983 0 0 0.646033 0 1.43782V12.5622C0 13.354 0.691983 14 1.54008 14H18.4599C19.308 14 20 13.354 20 12.5622V1.43782C20 0.646033 19.308 0 18.4599 0ZM18.2363 1.06359L10.1055 7.55543L1.97468 1.06359H18.2363ZM18.8608 12.5622C18.8608 12.767 18.6793 12.9364 18.4599 12.9364H1.54008C1.32068 12.9364 1.13924 12.767 1.13924 12.5622V1.79629L9.73418 8.65841C9.7384 8.66235 9.74684 8.66629 9.75106 8.67023C9.75527 8.67417 9.76371 8.67811 9.76793 8.68205C9.78059 8.68993 9.78903 8.69781 9.80169 8.70174C9.80591 8.70568 9.81013 8.70568 9.81435 8.70962C9.83122 8.7175 9.8481 8.72538 9.86498 8.73326C9.8692 8.73326 9.87342 8.7372 9.87764 8.7372C9.8903 8.74114 9.90295 8.74901 9.91983 8.75295C9.92405 8.75295 9.93249 8.75689 9.93671 8.75689C9.94937 8.76083 9.96203 8.76477 9.97468 8.76477C9.9789 8.76477 9.98734 8.76871 9.99156 8.76871C10.0042 8.77265 10.0211 8.77265 10.0338 8.77659C10.038 8.77659 10.0422 8.77659 10.0464 8.77659C10.0633 8.77659 10.0844 8.78053 10.1013 8.78053C10.1181 8.78053 10.1392 8.78053 10.1561 8.77659C10.1603 8.77659 10.1646 8.77659 10.1688 8.77659C10.1814 8.77659 10.1983 8.77265 10.211 8.76871C10.2152 8.76871 10.2236 8.76477 10.2278 8.76477C10.2405 8.76083 10.2532 8.75689 10.2658 8.75689C10.27 8.75689 10.2785 8.75295 10.2827 8.75295C10.2954 8.74901 10.308 8.74508 10.3249 8.7372C10.3291 8.7372 10.3333 8.73326 10.3376 8.73326C10.3544 8.72538 10.3713 8.7175 10.3882 8.70962C10.3924 8.70568 10.3966 8.70568 10.4008 8.70174C10.4135 8.69387 10.4219 8.68993 10.4346 8.68205C10.4388 8.67811 10.4473 8.67417 10.4515 8.67023C10.4557 8.66629 10.4641 8.66235 10.4684 8.65841L18.8608 1.96567V12.5622Z" fill="white"/>
</svg>
