<svg width="16" height="16" viewBox="0 0 16 16" fill="none" xmlns="http://www.w3.org/2000/svg">
<path d="M9.77778 1.77778C9.54203 1.77778 9.31594 1.68413 9.14924 1.51743C8.98254 1.35073 8.88889 1.12464 8.88889 0.888889C8.88889 0.653141 8.98254 0.427048 9.14924 0.260349C9.31594 0.0936505 9.54203 0 9.77778 0H15.1111C15.3469 0 15.573 0.0936505 15.7397 0.260349C15.9064 0.427048 16 0.653141 16 0.888889V6.22222C16 6.45797 15.9064 6.68406 15.7397 6.85076C15.573 7.01746 15.3469 7.11111 15.1111 7.11111C14.8754 7.11111 14.6493 7.01746 14.4826 6.85076C14.3159 6.68406 14.2222 6.45797 14.2222 6.22222V3.03467L5.96178 11.2951C5.79413 11.457 5.5696 11.5466 5.33653 11.5446C5.10347 11.5426 4.88052 11.4491 4.71572 11.2843C4.55091 11.1195 4.45743 10.8965 4.4554 10.6635C4.45338 10.4304 4.54297 10.2059 4.70489 10.0382L12.9653 1.77778H9.77778ZM0 3.55556C0 3.08406 0.187301 2.63187 0.520699 2.29848C0.854097 1.96508 1.30628 1.77778 1.77778 1.77778H6.22222C6.45797 1.77778 6.68406 1.87143 6.85076 2.03813C7.01746 2.20483 7.11111 2.43092 7.11111 2.66667C7.11111 2.90241 7.01746 3.12851 6.85076 3.29521C6.68406 3.4619 6.45797 3.55556 6.22222 3.55556H1.77778V14.2222H12.4444V9.77778C12.4444 9.54203 12.5381 9.31594 12.7048 9.14924C12.8715 8.98254 13.0976 8.88889 13.3333 8.88889C13.5691 8.88889 13.7952 8.98254 13.9619 9.14924C14.1286 9.31594 14.2222 9.54203 14.2222 9.77778V14.2222C14.2222 14.6937 14.0349 15.1459 13.7015 15.4793C13.3681 15.8127 12.9159 16 12.4444 16H1.77778C1.30628 16 0.854097 15.8127 0.520699 15.4793C0.187301 15.1459 0 14.6937 0 14.2222V3.55556Z" fill="#0D0D0D"/>
</svg>
