<svg width="54" height="43" viewBox="0 0 54 43" fill="none" xmlns="http://www.w3.org/2000/svg">
<path d="M18.346 19.9754L14.0829 13.296H16.7539L12.658 7.44219H14.8601L9.5 0.582184L4.13986 7.44219H6.34202L2.2461 13.296H4.91713L0.653992 19.9754H18.346Z" fill="#49595B"/>
<path d="M10.8541 19.9754H8.1459V23.6513H10.8541V19.9754Z" fill="#3E2E25"/>
<path d="M3.28592 18.3581L3.90085 18.7265L7.04342 13.481L6.42849 13.1126L3.28592 18.3581Z" fill="#2C3639"/>
<path d="M11.2125 20.3338H19L14.7369 13.6544H17.4422L13.3462 7.80063H15.5951L9.49998 0L3.40491 7.80063H5.65376L1.55779 13.6544H4.26309L0 20.3338H7.78748V23.2929H7.07048V21.4475H6.35361V23.2929H5.63661V22.1166H4.91974V23.2929H3.98012V24.0097H7.78748H11.2125H15.0199V23.2929H11.2125V20.3338ZM1.30794 19.617L5.57108 12.9375H2.93431L7.03024 7.08376H4.87477L9.49998 1.16438L14.1252 7.08376H11.9697L16.0656 12.9375H13.4289L16.7768 18.1831H13.2117V18.9H17.2344L17.692 19.617H11.2125H7.78748H1.30794ZM8.50435 23.2929V20.3338H10.4957V23.2929H8.50435Z" fill="#2C3639"/>
<path d="M12.2558 18.1831H10.1212V18.9H12.2558V18.1831Z" fill="#2C3639"/>
<path d="M35.9628 17.203L32.7183 12.1193H34.7511L31.6338 7.66413H33.3098L29.2303 2.4431L25.1508 7.66413H26.8268L23.7095 12.1193H25.7423L22.4977 17.203H35.9628Z" fill="#49595B"/>
<path d="M30.2608 17.203H28.1997V20.0006H30.2608V17.203Z" fill="#3E2E25"/>
<path d="M24.5009 15.9721L24.9689 16.2524L27.3606 12.2601L26.8926 11.9797L24.5009 15.9721Z" fill="#2C3639"/>
<path d="M30.5337 17.4757H36.4606L33.216 12.3921H35.2749L32.1576 7.93693H33.8692L29.2303 2L24.5914 7.93693H26.303L23.1856 12.3921H25.2446L22 17.4757H27.9269V19.7278H27.3812V18.3233H26.8356V19.7278H26.2899V18.8326H25.7443V19.7278H25.0292V20.2734H27.9269H30.5337H33.4314V19.7278H30.5337V17.4757ZM22.9955 16.9302L26.2401 11.8465H24.2333L27.3506 7.39133H25.7101L29.2303 2.88619L32.7504 7.39133H31.1099L34.2273 11.8465H32.2205L34.7686 15.8389H32.0552V16.3845H35.1168L35.4651 16.9302H30.5337H27.9269H22.9955ZM28.4725 19.7278V17.4757H29.9881V19.7278H28.4725Z" fill="#2C3639"/>
<path d="M31.3277 15.8388H29.703V16.3844H31.3277V15.8388Z" fill="#2C3639"/>
<path d="M52.4098 29.4001L47.2024 21.2411H50.4651L45.4619 14.0907H48.1518L41.6043 5.71115L35.0569 14.0907H37.7468L32.7436 21.2411H36.0063L30.7988 29.4001H52.4098Z" fill="#49595B"/>
<path d="M43.2583 29.4001H39.9503V33.8903H43.2583V29.4001Z" fill="#3E2E25"/>
<path d="M34.0138 27.4246L34.7649 27.8746L38.6036 21.4671L37.8524 21.0171L34.0138 27.4246Z" fill="#2C3639"/>
<path d="M43.6962 29.838H53.2087L48.0012 21.679H51.3057L46.3025 14.5285H49.0495L41.6043 5L34.1591 14.5285H36.9061L31.9029 21.679H35.2074L30 29.838H39.5125V33.4524H38.6366V31.1983H37.761V33.4524H36.8852V32.0157H36.0095V33.4524H34.8618V34.3281H39.5125H43.6962H48.3469V33.4524H43.6962V29.838ZM31.5977 28.9623L36.8051 20.8033H33.5843L38.5875 13.6529H35.9546L41.6043 6.4223L47.254 13.6529H44.6211L49.6243 20.8033H46.4035L50.493 27.2108H46.1382V28.0865H51.0519L51.6109 28.9623H43.6962H39.5125H31.5977ZM40.3881 33.4524V29.838H42.8205V33.4524H40.3881Z" fill="#2C3639"/>
<path d="M44.9706 27.2108H42.3631V28.0865H44.9706V27.2108Z" fill="#2C3639"/>
<path d="M33.105 36.8074L27.2713 27.6671H30.9264L25.3215 19.6567H28.3349L21 10.2693L13.6651 19.6567H16.6785L11.0736 27.6671H14.7287L8.89493 36.8074H33.105Z" fill="#49595B"/>
<path d="M22.853 36.8074H19.147V41.8376H22.853V36.8074Z" fill="#3E2E25"/>
<path d="M12.4965 34.5943L13.338 35.0984L17.6384 27.9203L16.7969 27.4161L12.4965 34.5943Z" fill="#2C3639"/>
<path d="M23.3434 37.2979H34L28.1662 28.1576H31.8682L26.2633 20.1472H29.3406L21 9.47266L12.6594 20.1472H15.7367L10.1317 28.1576H13.8337L8 37.2979H18.6566V41.3471H17.6754V38.8219H16.6944V41.3471H15.7133V39.7375H14.7323V41.3471H13.4465V42.3281H18.6566H23.3434H28.5535V41.3471H23.3434V37.2979ZM9.78982 36.3169L15.6236 27.1766H12.0154L17.6203 19.1662H14.6707L21 11.066L27.3292 19.1662H24.3796L29.9846 27.1766H26.3763L30.9577 34.3548H26.0792V35.3358H31.5839L32.2101 36.3169H23.3434H18.6566H9.78982ZM19.6375 41.3471V37.2979H22.3625V41.3471H19.6375Z" fill="#2C3639"/>
<path d="M24.7711 34.3548H21.85V35.3358H24.7711V34.3548Z" fill="#2C3639"/>
</svg>
